<svg width="228" height="64" viewBox="0 0 228 64" fill="none" xmlns="http://www.w3.org/2000/svg">
<path fill-rule="evenodd" clip-rule="evenodd" d="M64 0H0V64H64V0ZM34.3607 20.8143L32 8L29.6393 20.8143C28.8127 25.3016 25.3016 28.8127 20.8143 29.6393L8 32L20.8143 34.3607C25.3016 35.1873 28.8127 38.6984 29.6393 43.1857L32 56L34.3607 43.1857C35.1873 38.6984 38.6984 35.1873 43.1857 34.3607L56 32L43.1857 29.6393C38.6984 28.8127 35.1873 25.3016 34.3607 20.8143Z" fill="#0A0A0A"/>
<path d="M218.941 63.9999C213.194 63.9999 209.243 59.8503 209.243 53.7855C209.243 47.6807 213.114 43.4513 218.781 43.4513C224.328 43.4513 227.96 47.2817 227.96 53.0673V54.4638L212.875 54.5037C213.154 58.6134 215.309 60.8877 219.02 60.8877C221.934 60.8877 223.849 59.6907 224.488 57.4563H228C227.042 61.6458 223.77 63.9999 218.941 63.9999ZM218.781 46.6034C215.509 46.6034 213.433 48.5585 212.954 51.99H224.209C224.209 48.758 222.093 46.6034 218.781 46.6034Z" fill="#0A0A0A"/>
<path d="M187.925 53.7855C187.925 47.6807 191.796 43.4513 197.503 43.4513C202.412 43.4513 205.844 46.2443 206.522 50.5934H202.771C202.132 48.1196 200.137 46.8029 197.623 46.8029C194.071 46.8029 191.636 49.5161 191.636 53.7456C191.636 57.9351 193.911 60.6483 197.463 60.6483C200.137 60.6483 202.132 59.2518 202.811 56.9376H206.562C205.804 61.167 202.172 63.9999 197.463 63.9999C191.716 63.9999 187.925 59.9301 187.925 53.7855Z" fill="#0A0A0A"/>
<path d="M173.59 63.9999C169.4 63.9999 166.926 61.6458 166.926 58.0947C166.926 54.5037 169.6 52.2693 174.189 51.9102L180.335 51.4314V50.8727C180.335 47.6009 178.38 46.4438 175.746 46.4438C172.593 46.4438 170.797 47.8403 170.797 50.1944H167.524C167.524 46.1246 170.877 43.4513 175.905 43.4513C180.734 43.4513 184.007 46.0049 184.007 51.2718V63.5211H180.814L180.415 60.369C179.417 62.6034 176.743 63.9999 173.59 63.9999ZM174.668 61.0872C178.22 61.0872 180.375 58.773 180.375 55.1022V54.0648L175.386 54.4638C172.074 54.783 170.717 56.0598 170.717 57.975C170.717 60.0498 172.234 61.0872 174.668 61.0872Z" fill="#0A0A0A"/>
<path d="M153.766 44.01H156.639V40.8978C156.639 36.1098 159.273 34.1547 162.825 34.1547C163.543 34.1547 164.381 34.1946 165.14 34.3143V37.5462H163.463C161.029 37.5462 160.39 38.7831 160.39 40.8978V44.01H165.02V47.1622H160.39V63.5213H156.639V47.1622H153.766V44.01Z" fill="#0A0A0A"/>
<path d="M151.543 43.8504V47.2818H149.867C146.315 47.2818 144.12 49.4364 144.12 53.187V63.5212H140.369V44.0499H143.881L144.12 47.0025C144.918 44.9676 146.874 43.611 149.548 43.611C150.226 43.611 150.785 43.6908 151.543 43.8504Z" fill="#0A0A0A"/>
<path d="M127.159 63.9999C121.412 63.9999 117.461 59.8503 117.461 53.7855C117.461 47.6807 121.333 43.4513 127 43.4513C132.547 43.4513 136.178 47.2817 136.178 53.0673V54.4638L121.093 54.5037C121.372 58.6134 123.528 60.8877 127.239 60.8877C130.152 60.8877 132.068 59.6907 132.706 57.4563H136.218C135.261 61.6458 131.988 63.9999 127.159 63.9999ZM127 46.6034C123.727 46.6034 121.652 48.5585 121.173 51.99H132.427C132.427 48.758 130.312 46.6034 127 46.6034Z" fill="#0A0A0A"/>
<path d="M111.735 63.5213H107.984V47.1621H104.153V44.01H107.984V37.9053H111.735V44.01H115.567V47.1621H111.735V63.5213Z" fill="#0A0A0A"/>
<path d="M87.0243 63.5211H83.2729V44.0099H86.6652L87.0643 47.0024C88.3014 44.768 90.7757 43.4513 93.5294 43.4513C98.6776 43.4513 101.032 46.6034 101.032 51.591V63.5211H97.2808V52.4289C97.2808 48.4787 95.445 46.8827 92.5716 46.8827C89.0597 46.8827 87.0243 49.3964 87.0243 53.187V63.5211Z" fill="#0A0A0A"/>
<path d="M75.9111 39.3816C74.5542 39.3816 73.4368 38.2644 73.4368 36.9078C73.4368 35.5113 74.5542 34.434 75.9111 34.434C77.268 34.434 78.3854 35.5113 78.3854 36.9078C78.3854 38.2644 77.268 39.3816 75.9111 39.3816ZM74.0753 63.5213V44.01H77.8267V63.5213H74.0753Z" fill="#0A0A0A"/>
<path d="M206.391 26.0948C200.645 26.0948 196.694 21.9452 196.694 15.8803C196.694 9.77557 200.565 5.54614 206.232 5.54614C211.779 5.54614 215.411 9.37657 215.411 15.1621V16.5586L200.325 16.5985C200.605 20.7083 202.76 22.9826 206.471 22.9826C209.384 22.9826 211.3 21.7856 211.939 19.5511H215.451C214.493 23.7407 211.22 26.0948 206.391 26.0948ZM206.232 8.69826C202.959 8.69826 200.884 10.6534 200.405 14.0848H211.659C211.659 10.8529 209.544 8.69826 206.232 8.69826Z" fill="#0A0A0A"/>
<path d="M172.882 15.3616C172.882 9.85537 176.434 5.54614 182.101 5.54614C185.254 5.54614 187.688 6.98255 188.925 9.41647L189.205 6.10475H192.557V24.818C192.557 30.9626 188.766 34.8729 182.779 34.8729C177.472 34.8729 173.84 31.8803 173.122 26.9327H176.873C177.352 29.8055 179.507 31.4813 182.779 31.4813C186.451 31.4813 188.845 29.0873 188.845 25.3766V21.4664C187.568 23.7407 185.014 25.0973 181.941 25.0973C176.394 25.0973 172.882 20.828 172.882 15.3616ZM176.633 15.2818C176.633 18.9526 178.908 21.8255 182.58 21.8255C186.371 21.8255 188.686 19.1122 188.686 15.2818C188.686 11.5312 186.451 8.81796 182.62 8.81796C178.868 8.81796 176.633 11.6908 176.633 15.2818Z" fill="#0A0A0A"/>
<path d="M158.508 26.0948C154.318 26.0948 151.843 23.7407 151.843 20.1895C151.843 16.5985 154.517 14.3641 159.107 14.005L165.253 13.5262V12.9676C165.253 9.69577 163.297 8.53866 160.663 8.53866C157.51 8.53866 155.714 9.93517 155.714 12.2893H152.442C152.442 8.21946 155.794 5.54614 160.823 5.54614C165.652 5.54614 168.924 8.09976 168.924 13.3666V25.616H165.731L165.332 22.4639C164.335 24.6983 161.661 26.0948 158.508 26.0948ZM159.585 23.1821C163.137 23.1821 165.292 20.8679 165.292 17.197V16.1596L160.304 16.5586C156.991 16.8778 155.635 18.1546 155.635 20.0698C155.635 22.1447 157.151 23.1821 159.585 23.1821Z" fill="#0A0A0A"/>
<path d="M133.597 25.616H129.846V6.10475H133.238L133.637 9.09727C134.874 6.86285 137.348 5.54614 140.102 5.54614C145.25 5.54614 147.605 8.69826 147.605 13.6858V25.616H143.854V14.5237C143.854 10.5736 142.018 8.97757 139.144 8.97757C135.632 8.97757 133.597 11.4913 133.597 15.2818V25.616Z" fill="#0A0A0A"/>
<path d="M116.636 26.0948C110.89 26.0948 106.939 21.9452 106.939 15.8803C106.939 9.77557 110.81 5.54614 116.477 5.54614C122.024 5.54614 125.656 9.37657 125.656 15.1621V16.5586L110.57 16.5985C110.85 20.7083 113.005 22.9826 116.716 22.9826C119.63 22.9826 121.545 21.7856 122.184 19.5511H125.696C124.738 23.7407 121.465 26.0948 116.636 26.0948ZM116.477 8.69826C113.204 8.69826 111.129 10.6534 110.65 14.0848H121.904C121.904 10.8529 119.789 8.69826 116.477 8.69826Z" fill="#0A0A0A"/>
<path d="M95.0063 26.0948C89.2595 26.0948 85.3086 21.9452 85.3086 15.8803C85.3086 9.77557 89.1797 5.54614 94.8467 5.54614C100.394 5.54614 104.026 9.37657 104.026 15.1621V16.5586L88.9403 16.5985C89.2196 20.7083 91.3747 22.9826 95.0862 22.9826C97.9995 22.9826 99.9151 21.7856 100.554 19.5511H104.066C103.108 23.7407 99.8353 26.0948 95.0063 26.0948ZM94.8467 8.69826C91.5742 8.69826 89.499 10.6534 89.0201 14.0848H100.274C100.274 10.8529 98.1591 8.69826 94.8467 8.69826Z" fill="#0A0A0A"/>
<path d="M79.5826 25.616H75.8312V9.25687H72V6.10474H75.8312V0H79.5826V6.10474H83.4138V9.25687H79.5826V25.616Z" fill="#0A0A0A"/>
</svg>
