<svg width="160" height="25" viewBox="0 0 160 25" fill="none" xmlns="http://www.w3.org/2000/svg">
<path fill-rule="evenodd" clip-rule="evenodd" d="M20 4H4V19.9102H20V4ZM12.5883 9.16424L12 5.98877L11.4117 9.16424C11.2039 10.2859 10.3253 11.1627 9.20324 11.3683L6 11.9551L9.20324 12.5419C10.3253 12.7474 11.2039 13.6243 11.4117 14.7459L12 17.9214L12.5883 14.7459C12.7961 13.6243 13.6747 12.7474 14.7968 12.5419L18 11.9551L14.7968 11.3683C13.6747 11.1627 12.7961 10.2859 12.5883 9.16424Z" fill="#FAFAFA"/>
<path d="M151.758 17.2715C149.406 17.2715 147.758 15.5369 147.758 13.0567C147.758 10.544 149.374 8.80945 151.694 8.80945C154.062 8.80945 155.566 10.4143 155.566 12.9108V13.5106L149.614 13.5268C149.758 14.9371 150.494 15.6504 151.79 15.6504C152.862 15.6504 153.566 15.2289 153.79 14.467H155.598C155.262 16.2178 153.822 17.2715 151.758 17.2715ZM151.71 10.4305C150.558 10.4305 149.854 11.0627 149.662 12.2623H153.63C153.63 11.16 152.878 10.4305 151.71 10.4305Z" fill="#FAFAFA"/>
<path d="M138.961 13.0405C138.961 10.5602 140.577 8.80945 142.913 8.80945C145.073 8.80945 146.545 10.0253 146.753 11.9543H144.801C144.577 11.0465 143.921 10.5764 142.993 10.5764C141.745 10.5764 140.913 11.5329 140.913 13.0405C140.913 14.548 141.681 15.4883 142.929 15.4883C143.905 15.4883 144.593 15.002 144.801 14.1266H146.769C146.529 15.9908 144.993 17.2715 142.929 17.2715C140.529 17.2715 138.961 15.5855 138.961 13.0405Z" fill="#FAFAFA"/>
<path d="M133.011 17.2715C131.331 17.2715 130.307 16.2826 130.307 14.775C130.307 13.2998 131.363 12.3758 133.235 12.2299L135.603 12.0516V11.8733C135.603 10.7872 134.963 10.3495 133.971 10.3495C132.819 10.3495 132.179 10.8358 132.179 11.6787H130.515C130.515 9.9442 131.923 8.80945 134.067 8.80945C136.195 8.80945 137.507 9.97662 137.507 12.1975V17.0607H135.795L135.651 15.8773C135.315 16.7041 134.243 17.2715 133.011 17.2715ZM133.651 15.7801C134.851 15.7801 135.619 15.0506 135.619 13.8186V13.3971L133.971 13.5268C132.755 13.6402 132.291 14.0455 132.291 14.6939C132.291 15.4234 132.771 15.7801 133.651 15.7801Z" fill="#FAFAFA"/>
<path d="M124.656 9.05268H125.792V8.08004C125.792 5.9078 126.928 5 128.64 5C128.944 5 129.312 5.01621 129.648 5.08105V6.76697H128.96C127.968 6.76697 127.728 7.28571 127.728 8.08004V9.05268H129.616V10.7062H127.728V17.0608H125.792V10.7062H124.656V9.05268Z" fill="#FAFAFA"/>
<path d="M123.806 9.02021V10.852H123.086C121.678 10.852 120.798 11.6139 120.798 13.1702V17.0607H118.846V9.06885H120.686L120.798 10.236C121.134 9.44169 121.886 8.90674 122.942 8.90674C123.214 8.90674 123.486 8.93916 123.806 9.02021Z" fill="#FAFAFA"/>
<path d="M113.476 17.2715C111.124 17.2715 109.476 15.5369 109.476 13.0567C109.476 10.544 111.092 8.80945 113.412 8.80945C115.78 8.80945 117.284 10.4143 117.284 12.9108V13.5106L111.332 13.5268C111.476 14.9371 112.212 15.6504 113.508 15.6504C114.58 15.6504 115.284 15.2289 115.508 14.467H117.316C116.98 16.2178 115.54 17.2715 113.476 17.2715ZM113.428 10.4305C112.276 10.4305 111.572 11.0627 111.38 12.2623H115.348C115.348 11.16 114.596 10.4305 113.428 10.4305Z" fill="#FAFAFA"/>
<path d="M107.269 17.0608H105.317V10.7062H103.797V9.05273H105.317V6.55627H107.269V9.05273H108.805V10.7062H107.269V17.0608Z" fill="#FAFAFA"/>
<path d="M97.1109 17.0607H95.1589V9.05261H96.9669L97.1269 10.0901C97.6229 9.27956 98.5829 8.80945 99.6549 8.80945C101.639 8.80945 102.663 10.0577 102.663 12.1326V17.0607H100.711V12.6028C100.711 11.2573 100.055 10.6088 99.0469 10.6088C97.8469 10.6088 97.1109 11.4518 97.1109 12.7487V17.0607Z" fill="#FAFAFA"/>
<path d="M92.1663 7.4478C91.4943 7.4478 90.9663 6.91284 90.9663 6.2482C90.9663 5.58356 91.4943 5.06482 92.1663 5.06482C92.8063 5.06482 93.3343 5.58356 93.3343 6.2482C93.3343 6.91284 92.8063 7.4478 92.1663 7.4478ZM91.1903 17.0608V9.05266H93.1423V17.0608H91.1903Z" fill="#FAFAFA"/>
<path d="M81.5076 17.2715C79.1556 17.2715 77.5076 15.5369 77.5076 13.0567C77.5076 10.544 79.1236 8.80945 81.4436 8.80945C83.8116 8.80945 85.3156 10.4143 85.3156 12.9108V13.5106L79.3636 13.5268C79.5076 14.9371 80.2436 15.6504 81.5396 15.6504C82.6116 15.6504 83.3156 15.2289 83.5396 14.467H85.3476C85.0116 16.2178 83.5716 17.2715 81.5076 17.2715ZM81.4596 10.4305C80.3076 10.4305 79.6036 11.0627 79.4116 12.2623H83.3796C83.3796 11.16 82.6276 10.4305 81.4596 10.4305Z" fill="#FAFAFA"/>
<path d="M67.6953 12.8783C67.6953 10.544 69.1993 8.79321 71.4553 8.79321C72.6393 8.79321 73.5673 9.29575 74.0313 10.1549L74.1433 9.05259H75.9513V16.6554C75.9513 19.3302 74.3673 20.9999 71.8073 20.9999C69.5353 20.9999 67.9833 19.6868 67.7433 17.547H69.6953C69.8233 18.5845 70.6073 19.2005 71.8073 19.2005C73.1513 19.2005 74.0153 18.3413 74.0153 17.0121V15.6828C73.5193 16.4285 72.5433 16.8986 71.4073 16.8986C69.1673 16.8986 67.6953 15.1965 67.6953 12.8783ZM69.6633 12.8297C69.6633 14.1752 70.5113 15.1802 71.7913 15.1802C73.1353 15.1802 73.9673 14.2238 73.9673 12.8297C73.9673 11.468 73.1513 10.5278 71.7913 10.5278C70.4953 10.5278 69.6633 11.5166 69.6633 12.8297Z" fill="#FAFAFA"/>
<path d="M61.7296 17.2715C60.0496 17.2715 59.0256 16.2826 59.0256 14.775C59.0256 13.2998 60.0816 12.3758 61.9536 12.2299L64.3216 12.0516V11.8733C64.3216 10.7872 63.6816 10.3495 62.6896 10.3495C61.5376 10.3495 60.8976 10.8358 60.8976 11.6787H59.2336C59.2336 9.9442 60.6416 8.80945 62.7856 8.80945C64.9136 8.80945 66.2256 9.97662 66.2256 12.1975V17.0607H64.5136L64.3696 15.8773C64.0336 16.7041 62.9616 17.2715 61.7296 17.2715ZM62.3696 15.7801C63.5696 15.7801 64.3376 15.0506 64.3376 13.8186V13.3971L62.6896 13.5268C61.4736 13.6402 61.0096 14.0455 61.0096 14.6939C61.0096 15.4234 61.4896 15.7801 62.3696 15.7801Z" fill="#FAFAFA"/>
<path d="M51.9078 17.0607H49.9558V9.05261H51.7638L51.9238 10.0901C52.4198 9.27956 53.3798 8.80945 54.4518 8.80945C56.4358 8.80945 57.4598 10.0577 57.4598 12.1326V17.0607H55.5078V12.6028C55.5078 11.2573 54.8518 10.6088 53.8438 10.6088C52.6438 10.6088 51.9078 11.4518 51.9078 12.7487V17.0607Z" fill="#FAFAFA"/>
<path d="M44.5857 17.2715C42.2337 17.2715 40.5857 15.5369 40.5857 13.0567C40.5857 10.544 42.2017 8.80945 44.5217 8.80945C46.8897 8.80945 48.3937 10.4143 48.3937 12.9108V13.5106L42.4417 13.5268C42.5857 14.9371 43.3217 15.6504 44.6177 15.6504C45.6897 15.6504 46.3937 15.2289 46.6177 14.467H48.4257C48.0897 16.2178 46.6497 17.2715 44.5857 17.2715ZM44.5377 10.4305C43.3857 10.4305 42.6817 11.0627 42.4897 12.2623H46.4577C46.4577 11.16 45.7057 10.4305 44.5377 10.4305Z" fill="#FAFAFA"/>
<path d="M35.6794 17.2715C33.3274 17.2715 31.6794 15.5369 31.6794 13.0567C31.6794 10.544 33.2954 8.80945 35.6154 8.80945C37.9834 8.80945 39.4874 10.4143 39.4874 12.9108V13.5106L33.5354 13.5268C33.6794 14.9371 34.4154 15.6504 35.7114 15.6504C36.7834 15.6504 37.4874 15.2289 37.7114 14.467H39.5194C39.1834 16.2178 37.7434 17.2715 35.6794 17.2715ZM35.6314 10.4305C34.4794 10.4305 33.7754 11.0627 33.5834 12.2623H37.5514C37.5514 11.16 36.7994 10.4305 35.6314 10.4305Z" fill="#FAFAFA"/>
<path d="M29.472 17.0608H27.52V10.7062H26V9.05273H27.52V6.55627H29.472V9.05273H31.008V10.7062H29.472V17.0608Z" fill="#FAFAFA"/>
</svg>
