<svg width="169" height="32" viewBox="0 0 169 32" fill="none" xmlns="http://www.w3.org/2000/svg">
<path fill-rule="evenodd" clip-rule="evenodd" d="M32 0H0V32H32V0ZM17.1803 10.4071L16 4L14.8197 10.4071C14.4063 12.6508 12.6508 14.4063 10.4071 14.8197L4 16L10.4071 17.1803C12.6508 17.5937 14.4063 19.3492 14.8197 21.5929L16 28L17.1803 21.5929C17.5937 19.3492 19.3492 17.5937 21.5929 17.1803L28 16L21.5929 14.8197C19.3492 14.4063 17.5937 12.6508 17.1803 10.4071Z" fill="#FAFAFA"/>
<path d="M41.696 22H39.744V15.728H38.224V14.096H39.744V11.632H41.696V14.096H43.232V15.728H41.696V22ZM47.9034 22.208C45.5514 22.208 43.9034 20.496 43.9034 18.048C43.9034 15.568 45.5194 13.856 47.8394 13.856C50.2074 13.856 51.7114 15.44 51.7114 17.904V18.496L45.7594 18.512C45.9034 19.904 46.6394 20.608 47.9354 20.608C49.0074 20.608 49.7114 20.192 49.9354 19.44H51.7434C51.4074 21.168 49.9674 22.208 47.9034 22.208ZM47.8554 15.456C46.7034 15.456 45.9994 16.08 45.8074 17.264H49.7754C49.7754 16.176 49.0234 15.456 47.8554 15.456ZM56.8096 22.208C54.4576 22.208 52.8096 20.496 52.8096 18.048C52.8096 15.568 54.4256 13.856 56.7456 13.856C59.1136 13.856 60.6176 15.44 60.6176 17.904V18.496L54.6656 18.512C54.8096 19.904 55.5456 20.608 56.8416 20.608C57.9136 20.608 58.6176 20.192 58.8416 19.44H60.6496C60.3136 21.168 58.8736 22.208 56.8096 22.208ZM56.7616 15.456C55.6096 15.456 54.9056 16.08 54.7136 17.264H58.6816C58.6816 16.176 57.9296 15.456 56.7616 15.456ZM64.1319 22H62.1799V14.096H63.9879L64.1479 15.12C64.6439 14.32 65.6039 13.856 66.6759 13.856C68.6599 13.856 69.6839 15.088 69.6839 17.136V22H67.7319V17.6C67.7319 16.272 67.0759 15.632 66.0679 15.632C64.8679 15.632 64.1319 16.464 64.1319 17.744V22ZM73.9538 22.208C72.2738 22.208 71.2498 21.232 71.2498 19.744C71.2498 18.288 72.3058 17.376 74.1778 17.232L76.5458 17.056V16.88C76.5458 15.808 75.9058 15.376 74.9138 15.376C73.7618 15.376 73.1218 15.856 73.1218 16.688H71.4578C71.4578 14.976 72.8658 13.856 75.0098 13.856C77.1378 13.856 78.4498 15.008 78.4498 17.2V22H76.7378L76.5938 20.832C76.2578 21.648 75.1858 22.208 73.9538 22.208ZM74.5938 20.736C75.7938 20.736 76.5618 20.016 76.5618 18.8V18.384L74.9138 18.512C73.6978 18.624 73.2338 19.024 73.2338 19.664C73.2338 20.384 73.7138 20.736 74.5938 20.736ZM79.9194 17.872C79.9194 15.568 81.4234 13.84 83.6794 13.84C84.8634 13.84 85.7914 14.336 86.2554 15.184L86.3674 14.096H88.1754V21.6C88.1754 24.24 86.5914 25.888 84.0314 25.888C81.7594 25.888 80.2074 24.592 79.9674 22.48H81.9194C82.0474 23.504 82.8314 24.112 84.0314 24.112C85.3754 24.112 86.2394 23.264 86.2394 21.952V20.64C85.7434 21.376 84.7674 21.84 83.6314 21.84C81.3914 21.84 79.9194 20.16 79.9194 17.872ZM81.8874 17.824C81.8874 19.152 82.7354 20.144 84.0154 20.144C85.3594 20.144 86.1914 19.2 86.1914 17.824C86.1914 16.48 85.3754 15.552 84.0154 15.552C82.7194 15.552 81.8874 16.528 81.8874 17.824ZM93.7315 22.208C91.3795 22.208 89.7315 20.496 89.7315 18.048C89.7315 15.568 91.3475 13.856 93.6675 13.856C96.0355 13.856 97.5395 15.44 97.5395 17.904V18.496L91.5875 18.512C91.7315 19.904 92.4675 20.608 93.7635 20.608C94.8355 20.608 95.5395 20.192 95.7635 19.44H97.5715C97.2355 21.168 95.7955 22.208 93.7315 22.208ZM93.6835 15.456C92.5315 15.456 91.8275 16.08 91.6355 17.264H95.6035C95.6035 16.176 94.8515 15.456 93.6835 15.456ZM104.39 12.512C103.718 12.512 103.19 11.984 103.19 11.328C103.19 10.672 103.718 10.16 104.39 10.16C105.03 10.16 105.558 10.672 105.558 11.328C105.558 11.984 105.03 12.512 104.39 12.512ZM103.414 22V14.096H105.366V22H103.414ZM109.335 22H107.383V14.096H109.191L109.351 15.12C109.847 14.32 110.807 13.856 111.879 13.856C113.863 13.856 114.887 15.088 114.887 17.136V22H112.935V17.6C112.935 16.272 112.279 15.632 111.271 15.632C110.071 15.632 109.335 16.464 109.335 17.744V22ZM119.493 22H117.541V15.728H116.021V14.096H117.541V11.632H119.493V14.096H121.029V15.728H119.493V22ZM125.7 22.208C123.348 22.208 121.7 20.496 121.7 18.048C121.7 15.568 123.316 13.856 125.636 13.856C128.004 13.856 129.508 15.44 129.508 17.904V18.496L123.556 18.512C123.7 19.904 124.436 20.608 125.732 20.608C126.804 20.608 127.508 20.192 127.732 19.44H129.54C129.204 21.168 127.764 22.208 125.7 22.208ZM125.652 15.456C124.5 15.456 123.796 16.08 123.604 17.264H127.572C127.572 16.176 126.82 15.456 125.652 15.456ZM136.031 14.064V15.872H135.311C133.903 15.872 133.023 16.624 133.023 18.16V22H131.071V14.112H132.911L133.023 15.264C133.359 14.48 134.111 13.952 135.167 13.952C135.439 13.952 135.711 13.984 136.031 14.064ZM136.88 14.096H138.016V13.136C138.016 10.992 139.152 10.096 140.864 10.096C141.168 10.096 141.536 10.112 141.872 10.176V11.84H141.184C140.192 11.84 139.952 12.352 139.952 13.136V14.096H141.84V15.728H139.952V22H138.016V15.728H136.88V14.096ZM145.235 22.208C143.555 22.208 142.531 21.232 142.531 19.744C142.531 18.288 143.587 17.376 145.459 17.232L147.827 17.056V16.88C147.827 15.808 147.187 15.376 146.195 15.376C145.043 15.376 144.403 15.856 144.403 16.688H142.739C142.739 14.976 144.147 13.856 146.291 13.856C148.419 13.856 149.731 15.008 149.731 17.2V22H148.019L147.875 20.832C147.539 21.648 146.467 22.208 145.235 22.208ZM145.875 20.736C147.075 20.736 147.843 20.016 147.843 18.8V18.384L146.195 18.512C144.979 18.624 144.515 19.024 144.515 19.664C144.515 20.384 144.995 20.736 145.875 20.736ZM151.185 18.032C151.185 15.584 152.801 13.856 155.137 13.856C157.297 13.856 158.769 15.056 158.977 16.96H157.025C156.801 16.064 156.145 15.6 155.217 15.6C153.969 15.6 153.137 16.544 153.137 18.032C153.137 19.52 153.905 20.448 155.153 20.448C156.129 20.448 156.817 19.968 157.025 19.104H158.993C158.753 20.944 157.217 22.208 155.153 22.208C152.753 22.208 151.185 20.544 151.185 18.032ZM163.982 22.208C161.63 22.208 159.982 20.496 159.982 18.048C159.982 15.568 161.598 13.856 163.918 13.856C166.286 13.856 167.79 15.44 167.79 17.904V18.496L161.838 18.512C161.982 19.904 162.718 20.608 164.014 20.608C165.086 20.608 165.79 20.192 166.014 19.44H167.822C167.486 21.168 166.046 22.208 163.982 22.208ZM163.934 15.456C162.782 15.456 162.078 16.08 161.886 17.264H165.854C165.854 16.176 165.102 15.456 163.934 15.456Z" fill="#FAFAFA"/>
</svg>
